<?xml version="1.0" encoding="utf-8"?>
<!-- Generator: Adobe Illustrator 18.1.1, SVG Export Plug-In . SVG Version: 6.00 Build 0)  -->
<svg version="1.1" id="Layer_1" xmlns="http://www.w3.org/2000/svg" xmlns:xlink="http://www.w3.org/1999/xlink" x="0px" y="0px"
	 viewBox="0.5 0.5 58 58" enable-background="new 0.5 0.5 58 58" xml:space="preserve">
<g>
	<path fill="#CD3E28" d="M58.5,0.5h-58v58h58V0.5z"/>
	<path fill="#FFFFFF" d="M41.5,35.2V22.1h2.7v13.1H41.5L41.5,35.2z M36.2,29.9v-2.5h13.2v2.5H36.2L36.2,29.9z"/>
	<path fill="#FFFFFF" d="M32.7,11.7h-3.2c1.2,1,3.7,2.9,3.7,6.9c0,3.9-2.2,5.7-4.5,7.4c-0.7,0.7-1.5,1.4-1.5,2.5s0.8,1.8,1.4,2.2
		l1.9,1.4c2.3,1.9,4.5,3.8,4.5,7.3c0,4.9-5,10-14.1,10c-7.7,0-11.3-3.7-11.3-7.5c0-1.9,0.9-4.6,4.1-6.4c3.3-2,7.7-2.2,10.2-2.4
		c-0.7-0.9-1.6-1.9-1.6-3.6c0-0.9,0.3-1.4,0.5-2c-0.6,0.1-1.2,0.1-1.7,0.1c-5.7,0-8.9-4.2-8.9-8.2c0-2.4,0.7-5.3,3.1-7.2
		c3-2.4,6.8-2.7,9.7-2.7h11.1L32.7,11.7L32.7,11.7z M18.9,35.6c-1.2,0.4-4.6,1.6-4.6,5.4s3.7,6.4,9.4,6.4c5.1,0,7.8-2.4,7.8-5.7
		c0-2.6-1.7-4.1-5.8-6.9c-0.4-0.1-0.7-0.1-1.2-0.1C24,34.8,21.1,34.9,18.9,35.6L18.9,35.6z M21.8,11.5c-1.4,0-2.8,0.5-3.8,1.6
		c-0.9,1.1-1.2,2.6-1.2,4c0,3.6,2,9.4,6.6,9.4c1.3,0,2.7-0.7,3.7-1.6c1.2-1.2,1.3-2.7,1.3-3.7C28.5,17.4,26.3,11.5,21.8,11.5
		L21.8,11.5z"/>
</g>
</svg>
