<?xml version="1.0" encoding="utf-8"?>
<!-- Generator: Adobe Illustrator 18.1.1, SVG Export Plug-In . SVG Version: 6.00 Build 0)  -->
<svg version="1.1" id="Layer_1" xmlns="http://www.w3.org/2000/svg" xmlns:xlink="http://www.w3.org/1999/xlink" x="0px" y="0px"
	 viewBox="0 0 58 58" enable-background="new 0 0 58 58" xml:space="preserve">
<path fill="#333333" d="M6,45l17.2-14.2l0,0c1.5,1.2,3.6,1.9,5.7,1.9c2.2,0,4.2-0.7,5.8-1.9l0,0L52,45H6L6,45z M33.5,29.3
	c-1.2,0.9-2.8,1.5-4.5,1.5c-1.7,0-3.3-0.5-4.5-1.4L6,13h46L33.5,29.3L33.5,29.3z M36.3,29.4L54,15v28L36.3,29.4L36.3,29.4z M4,43V15
	l17.7,14.5L4,43L4,43z"/>
</svg>
