<?xml version="1.0" encoding="utf-8"?>
<!-- Generator: Adobe Illustrator 18.1.1, SVG Export Plug-In . SVG Version: 6.00 Build 0)  -->
<svg version="1.1" id="Layer_1" xmlns="http://www.w3.org/2000/svg" xmlns:xlink="http://www.w3.org/1999/xlink" x="0px" y="0px"
	 viewBox="0 0 58 58" enable-background="new 0 0 58 58" xml:space="preserve">
<path fill="#333333" d="M41.5,3H16.5C15.1,3,14,4.1,14,5.5v47c0,1.4,1.1,2.5,2.5,2.5h24.9c1.4,0,2.5-1.1,2.5-2.5v-47
	C44,4.1,42.9,3,41.5,3L41.5,3z M29,53c-1.6,0-3-1.3-3-3c0-1.7,1.3-3,3-3c1.6,0,3,1.3,3,3C32,51.6,30.6,53,29,53L29,53z M42,45H16V7
	h26V45L42,45z"/>
</svg>
