<?xml version="1.0" encoding="utf-8"?>
<!-- Generator: Adobe Illustrator 18.1.1, SVG Export Plug-In . SVG Version: 6.00 Build 0)  -->
<svg version="1.1" id="Layer_1" xmlns="http://www.w3.org/2000/svg" xmlns:xlink="http://www.w3.org/1999/xlink" x="0px" y="0px"
	 viewBox="0 0 29 29" enable-background="new 0 0 29 29" xml:space="preserve">
<g>
	<rect fill="#E52E28" width="29" height="29"/>
	<g>
		<path id="The_Sharpness" opacity="0.12" fill="#010101" enable-background="new    " d="M12.6,11.7l4.4,2.9l0.6-0.3L12.6,11.7z"/>
		<g id="Lozenge">
			<g>
				<path fill="#FFFFFF" d="M23.5,10.8c0,0-0.2-1.2-0.8-1.8c-0.7-0.8-1.5-0.8-1.9-0.8c-2.5-0.1-6.4-0.1-6.4-0.1l0,0
					c0,0-3.9,0-6.4,0.2C7.7,8.3,6.9,8.3,6.2,9.1c-0.6,0.6-0.8,1.8-0.8,1.8s-0.2,1.5-0.2,3v1.4c0,1.5,0.2,3,0.2,3s0.2,1.2,0.8,1.8
					c0.7,0.8,1.6,0.7,2,0.8C9.7,21,14.5,21,14.5,21s3.9,0,6.5-0.2c0.4,0,1.1,0,1.9-0.8c0.5-0.5,0.8-1.8,0.8-1.8s0.2-1.5,0.2-3v-1.4
					C23.7,12.3,23.5,10.8,23.5,10.8z M12.6,16.9v-5.1l4.9,2.6L12.6,16.9z"/>
			</g>
		</g>
	</g>
</g>
</svg>
