<?xml version="1.0" encoding="utf-8"?>
<!-- Generator: Adobe Illustrator 18.1.1, SVG Export Plug-In . SVG Version: 6.00 Build 0)  -->
<svg version="1.1" id="Layer_1" xmlns="http://www.w3.org/2000/svg" xmlns:xlink="http://www.w3.org/1999/xlink" x="0px" y="0px"
	 viewBox="0 0 58 58" enable-background="new 0 0 58 58" xml:space="preserve">
<g>
	<rect fill="#E52E28" width="58" height="58"/>
	<g>
		<path id="The_Sharpness" opacity="0.12" fill="#010101" enable-background="new    " d="M25.2,23.4l8.7,5.8l1.2-0.6L25.2,23.4z"/>
		<g id="Lozenge">
			<g>
				<path fill="#FFFFFF" d="M47,21.6c0,0-0.4-2.5-1.5-3.6c-1.4-1.5-3-1.5-3.7-1.6C36.7,16.1,29,16.1,29,16.1l0,0c0,0-7.7,0-12.9,0.4
					c-0.7,0.1-2.3,0.1-3.7,1.6c-1.1,1.1-1.5,3.6-1.5,3.6s-0.4,3-0.4,6v2.8c0,3,0.4,6,0.4,6s0.4,2.5,1.5,3.6c1.4,1.5,3.2,1.4,4.1,1.6
					C19.4,42,29,42.1,29,42.1s7.7,0,12.9-0.4c0.7-0.1,2.3-0.1,3.7-1.6c1.1-1.1,1.5-3.6,1.5-3.6s0.4-3,0.4-6v-2.8
					C47.4,24.6,47,21.6,47,21.6z M25.2,33.8V23.5l9.9,5.2L25.2,33.8z"/>
			</g>
		</g>
	</g>
</g>
</svg>
