<?xml version="1.0" encoding="utf-8"?>
<!-- Generator: Adobe Illustrator 18.1.1, SVG Export Plug-In . SVG Version: 6.00 Build 0)  -->
<svg version="1.1" id="Layer_1" xmlns="http://www.w3.org/2000/svg" xmlns:xlink="http://www.w3.org/1999/xlink" x="0px" y="0px"
	 viewBox="0 0 58 58" enable-background="new 0 0 58 58" xml:space="preserve">
<g>
	<path fill="#007BB6" d="M58,0H0v58h58V0z"/>
	<g>
		<path fill="#FFFFFF" d="M10.6,22.3h7.9v25.4h-7.9V22.3z M14.6,9.7c2.5,0,4.6,2.1,4.6,4.6s-2.1,4.6-4.6,4.6S10,16.8,10,14.3
			S12,9.7,14.6,9.7"/>
		<path fill="#FFFFFF" d="M23.5,22.3h7.6v3.5h0.1c1.1-2,3.6-4,7.5-4c8,0,9.5,5.2,9.5,12.1v13.9h-7.8V35.4c0-3-0.1-6.8-4-6.8
			c-4.1,0-4.7,3.2-4.7,6.5v12.5h-8V22.3H23.5z"/>
	</g>
</g>
</svg>
