<?xml version="1.0" encoding="utf-8"?>
<!-- Generator: Adobe Illustrator 19.1.0, SVG Export Plug-In . SVG Version: 6.00 Build 0)  -->
<svg version="1.1" id="Layer_1" xmlns="http://www.w3.org/2000/svg" xmlns:xlink="http://www.w3.org/1999/xlink" x="0px" y="0px"
	 viewBox="0 0 288 150" style="enable-background:new 0 0 288 150;" xml:space="preserve">
<style type="text/css">
	.st0{fill:#BCBEC0;}
	.st1{fill:#A7A9AC;}
	.st2{fill:#662D91;}
	.st3{fill:#D1D3D4;}
	.st4{fill:url(#SVGID_1_);}
	.st5{fill:none;stroke:#662D91;stroke-miterlimit:10;}
</style>
<g>
	<path class="st0" d="M25.9,132.9v3.7h8.4c2.4,0,3.1,0.7,3.1,3.1v1.5c0,2.4-0.7,3.1-3.1,3.1h-7.7c-2.4,0-3.1-0.7-3.1-3.1v-0.4
		l2.1-0.5v2.1h9.9v-4H27c-2.4,0-3.1-0.7-3.1-3.1v-1.2c0-2.5,0.7-3.1,3.1-3.1h7.1c2.2,0,3.1,0.6,3.1,2.9v0.3l-1.9,0.5v-1.9H25.9z"/>
	<path class="st0" d="M43.2,133.5h11v1.6h-8.9v2.8h5.4v1.6h-5.4v3.3h9v1.6H43.2V133.5z"/>
	<path class="st0" d="M58.1,133.5h8.8c1.6,0,2.3,0.6,2.3,2.1v2.4c0,1.5-0.7,2.1-2.3,2.1h-1.4l4.8,4.3h-2.8l-4.3-4.3h-3v4.3h-2.1
		V133.5z M60.1,135.1v3.5H66c0.9,0,1.2-0.2,1.2-1.1v-1.3c0-0.9-0.4-1.1-1.2-1.1H60.1z"/>
	<path class="st0" d="M71.9,133.5h2.2l4.9,8.8l4.7-8.8h2l-6,10.9h-1.6L71.9,133.5z"/>
	<path class="st0" d="M88.7,144.4v-10.9h2.1v10.9H88.7z"/>
	<path class="st0" d="M97.6,135.1v7.6h7.6v-2.6l2.1,0.4v1.3c0,2-0.6,2.6-2.7,2.6h-6.4c-2.1,0-2.6-0.6-2.6-2.6v-5.7
		c0-2,0.6-2.6,2.6-2.6h6.4c2,0,2.7,0.6,2.7,2.6v1l-2.1,0.3v-2.3H97.6z"/>
	<path class="st0" d="M111.6,133.5h11v1.6h-8.9v2.8h5.4v1.6h-5.4v3.3h9v1.6h-11.1V133.5z"/>
	<path class="st0" d="M149.5,132.1c1.7,1.1,2.8,3.2,2.8,5.5c0,2.5-1,4.5-2.8,5.7c-1.2,0.8-2.9,1-5.1,1h-7.3v-13.3h7.3
		C146.6,131.1,148.3,131.4,149.5,132.1z M139.3,132.9v9.6h4.8c4,0,5.9-1.1,5.9-4.9c0-3.6-2-4.8-5.9-4.8H139.3z"/>
	<path class="st0" d="M156.9,144.4v-10.9h2.1v10.9H156.9z"/>
	<path class="st0" d="M163.9,133.5h10.8v1.6H166v3.4h5v1.6h-5v4.3h-2.1V133.5z"/>
	<path class="st0" d="M177.9,133.5h10.8v1.6h-8.8v3.4h5v1.6h-5v4.3h-2.1V133.5z"/>
	<path class="st0" d="M191.8,133.5h11v1.6h-8.9v2.8h5.4v1.6h-5.4v3.3h9v1.6h-11.1V133.5z"/>
	<path class="st0" d="M206.8,133.5h8.8c1.6,0,2.3,0.6,2.3,2.1v2.4c0,1.5-0.7,2.1-2.3,2.1h-1.4l4.8,4.3h-2.7l-4.3-4.3h-3v4.3h-2.1
		V133.5z M208.8,135.1v3.5h5.8c0.9,0,1.2-0.2,1.2-1.1v-1.3c0-0.9-0.4-1.1-1.2-1.1H208.8z"/>
	<path class="st0" d="M222.5,133.5h11v1.6h-8.9v2.8h5.4v1.6h-5.4v3.3h9v1.6h-11.1V133.5z"/>
	<path class="st0" d="M239.3,137.6v6.8h-1.9v-10.9h1.6l8,7.1c0.5,0.4,0.9,0.9,1.3,1.5c-0.1-0.7-0.2-1.4-0.2-2v-6.6h1.9v10.9h-1.4
		l-8.1-7.2c-0.5-0.4-0.9-0.9-1.3-1.5C239.3,136.3,239.3,137,239.3,137.6z"/>
	<path class="st0" d="M260.3,144.4h-2.1v-9.3h-5.1v-1.6h12.4v1.6h-5.2V144.4z"/>
</g>
<g>
	<path class="st1" d="M68.8,82.3h2.5v9.4h0.1c0.5-0.7,1-1.4,1.5-2.1l5.9-7.3h3.1l-7,8.2l7.6,11.2h-3l-6.4-9.5l-1.8,2.1v7.4h-2.5
		V82.3z"/>
	<path class="st1" d="M94.4,92.6h-7.5v7h8.4v2.1H84.3V82.3h10.5v2.1h-8v6.1h7.5V92.6z"/>
	<path class="st1" d="M103,101.7l-6.3-19.4h2.7l3,9.6c0.8,2.6,1.6,5,2.1,7.3h0.1c0.5-2.2,1.4-4.7,2.2-7.2l3.3-9.6h2.7l-6.9,19.4H103
		z"/>
	<path class="st1" d="M117.3,82.3v19.4h-2.5V82.3H117.3z"/>
	<path class="st1" d="M121.7,101.7V82.3h2.7l6.2,9.8c1.4,2.3,2.6,4.3,3.5,6.3l0.1,0c-0.2-2.6-0.3-5-0.3-8v-8.1h2.4v19.4h-2.5
		l-6.2-9.8c-1.4-2.2-2.6-4.4-3.6-6.5l-0.1,0c0.1,2.4,0.2,4.8,0.2,8v8.3H121.7z"/>
	<path class="st2" d="M140.5,97.1c1.2,0.6,3,1.2,4.9,1.2c2,0,3.1-0.8,3.1-2.1c0-1.2-0.9-1.9-3.3-2.7c-3.2-1.2-5.4-2.9-5.4-5.8
		c0-3.3,2.8-5.8,7.3-5.8c2.2,0,3.8,0.4,5,1l-1,3.5c-0.7-0.4-2.2-0.9-4-0.9c-1.9,0-2.8,0.9-2.8,1.9c0,1.2,1.1,1.8,3.6,2.7
		c3.4,1.3,5,3,5,5.8c0,3.3-2.5,6-7.8,6c-2.2,0-4.4-0.6-5.5-1.2L140.5,97.1z"/>
	<path class="st2" d="M172.3,94.2c-0.1-2.3-0.2-5.2-0.2-8H172c-0.6,2.5-1.4,5.2-2.2,7.5l-2.4,7.6h-3.4l-2.1-7.5
		c-0.6-2.3-1.3-5.1-1.8-7.6h-0.1c-0.1,2.6-0.2,5.6-0.3,8l-0.4,7.4h-4.1l1.2-19.4h5.8l1.9,6.5c0.6,2.2,1.2,4.7,1.6,6.9h0.1
		c0.5-2.2,1.2-4.8,1.8-7l2-6.4h5.8l1,19.4h-4.3L172.3,94.2z"/>
	<path class="st2" d="M184.6,82.3v19.4h-4.4V82.3H184.6z"/>
	<path class="st2" d="M192.2,85.9h-5.2v-3.7h14.9v3.7h-5.3v15.7h-4.4V85.9z"/>
	<path class="st2" d="M208.6,82.3v7.5h7.2v-7.5h4.4v19.4h-4.4v-8.1h-7.2v8.1h-4.4V82.3H208.6z"/>
</g>
<g>
	<path class="st2" d="M44.8,108.9h-3.6V107h9.6v1.9h-3.7v10.8h-2.3V108.9z M52.3,107.1c0.9-0.2,2.2-0.3,3.5-0.3c1.8,0,3.1,0.3,3.9,1
		c0.7,0.6,1.1,1.5,1.1,2.5c0,1.6-1.1,2.8-2.3,3.2v0.1c0.9,0.3,1.5,1.2,1.8,2.5c0.4,1.6,0.7,3.1,1,3.5h-2.4c-0.2-0.4-0.5-1.4-0.8-3
		c-0.4-1.7-1-2.2-2.3-2.2h-1.2v5.2h-2.3V107.1z M54.6,112.8H56c1.6,0,2.5-0.8,2.5-2.1c0-1.4-1-2-2.5-2c-0.7,0-1.2,0.1-1.4,0.1V112.8
		z M65.7,116.1l-1.1,3.6h-2.4l4.1-12.7h3l4.1,12.7h-2.5l-1.2-3.6H65.7z M69.3,114.3l-1-3.1c-0.2-0.8-0.5-1.6-0.6-2.4h0
		c-0.2,0.7-0.4,1.6-0.6,2.4l-1,3.1H69.3z M75.1,119.7V107h2.6l3.3,5.5c0.8,1.4,1.6,2.9,2.2,4.3h0c-0.2-1.7-0.2-3.3-0.2-5.3V107h2.2
		v12.7h-2.4l-3.3-5.6c-0.8-1.4-1.7-2.9-2.3-4.4l-0.1,0c0.1,1.6,0.1,3.3,0.1,5.4v4.5H75.1z M87.8,117.2c0.8,0.4,1.9,0.8,3.1,0.8
		c1.5,0,2.3-0.7,2.3-1.7c0-1-0.6-1.5-2.3-2.1c-2.1-0.8-3.4-1.9-3.4-3.7c0-2.1,1.7-3.7,4.5-3.7c1.4,0,2.4,0.3,3.1,0.6l-0.6,1.9
		c-0.5-0.2-1.3-0.6-2.5-0.6c-1.5,0-2.1,0.8-2.1,1.5c0,1,0.7,1.4,2.4,2.1c2.2,0.8,3.3,1.9,3.3,3.8c0,2-1.5,3.8-4.8,3.8
		c-1.3,0-2.7-0.4-3.4-0.8L87.8,117.2z M97.7,107.1c0.8-0.2,2-0.3,3.5-0.3c1.7,0,2.9,0.4,3.8,1c0.8,0.6,1.2,1.6,1.2,2.8
		c0,1.2-0.4,2.2-1.1,2.9c-0.9,0.9-2.4,1.4-4,1.4c-0.4,0-0.8,0-1.1-0.1v4.8h-2.3V107.1z M100,113.1c0.3,0.1,0.7,0.1,1.1,0.1
		c1.7,0,2.8-0.8,2.8-2.3c0-1.4-1-2.2-2.6-2.2c-0.6,0-1.1,0.1-1.3,0.1V113.1z M119.5,113.2c0,4.3-2.6,6.7-6.1,6.7
		c-3.6,0-5.8-2.7-5.8-6.5c0-3.9,2.5-6.7,6-6.7C117.3,106.8,119.5,109.6,119.5,113.2z M110,113.4c0,2.6,1.3,4.7,3.5,4.7
		c2.2,0,3.5-2.1,3.5-4.8c0-2.4-1.2-4.7-3.5-4.7C111.3,108.6,110,110.8,110,113.4z M121.5,107.1c0.9-0.2,2.2-0.3,3.5-0.3
		c1.8,0,3.1,0.3,3.9,1c0.7,0.6,1.1,1.5,1.1,2.5c0,1.6-1.1,2.8-2.3,3.2v0.1c0.9,0.3,1.5,1.2,1.8,2.5c0.4,1.6,0.7,3.1,1,3.5h-2.4
		c-0.2-0.4-0.5-1.4-0.8-3c-0.4-1.7-1-2.2-2.3-2.2h-1.2v5.2h-2.3V107.1z M123.8,112.8h1.4c1.6,0,2.5-0.8,2.5-2.1c0-1.4-1-2-2.5-2
		c-0.7,0-1.2,0.1-1.4,0.1V112.8z M134.8,108.9h-3.6V107h9.6v1.9h-3.7v10.8h-2.3V108.9z M143.4,116.1l-1.1,3.6h-2.4L144,107h3
		l4.1,12.7h-2.5l-1.2-3.6H143.4z M147.1,114.3l-1-3.1c-0.2-0.8-0.5-1.6-0.6-2.4h0c-0.2,0.7-0.4,1.6-0.6,2.4l-1,3.1H147.1z
		 M153.8,108.9h-3.6V107h9.6v1.9h-3.7v10.8h-2.3V108.9z M163.6,107v12.7h-2.3V107H163.6z M177.5,113.2c0,4.3-2.6,6.7-6.1,6.7
		c-3.6,0-5.8-2.7-5.8-6.5c0-3.9,2.5-6.7,6-6.7C175.3,106.8,177.5,109.6,177.5,113.2z M168,113.4c0,2.6,1.3,4.7,3.5,4.7
		c2.2,0,3.5-2.1,3.5-4.8c0-2.4-1.2-4.7-3.5-4.7C169.2,108.6,168,110.8,168,113.4z M179.5,119.7V107h2.6l3.3,5.5
		c0.8,1.4,1.6,2.9,2.2,4.3h0c-0.2-1.7-0.2-3.3-0.2-5.3V107h2.2v12.7h-2.4l-3.3-5.6c-0.8-1.4-1.7-2.9-2.3-4.4l-0.1,0
		c0.1,1.6,0.1,3.3,0.1,5.4v4.5H179.5z"/>
	<path class="st1" d="M202,119.1c-0.7,0.3-2.2,0.7-3.9,0.7c-1.9,0-3.5-0.5-4.8-1.7c-1.1-1.1-1.8-2.7-1.8-4.7c0-3.8,2.6-6.6,6.9-6.6
		c1.5,0,2.6,0.3,3.2,0.6l-0.4,1.3c-0.7-0.3-1.5-0.5-2.8-0.5c-3.1,0-5.1,1.9-5.1,5.1c0,3.2,1.9,5.1,4.9,5.1c1.1,0,1.8-0.2,2.2-0.3
		v-3.8h-2.6V113h4.2V119.1z"/>
	<path class="st1" d="M204.5,107.1c0.8-0.2,2-0.3,3.2-0.3c1.7,0,2.9,0.3,3.7,1c0.6,0.6,1,1.4,1,2.4c0,1.7-1.1,2.8-2.4,3.2v0
		c1,0.3,1.6,1.3,1.9,2.6c0.4,1.8,0.7,3,1,3.5h-1.7c-0.2-0.4-0.5-1.5-0.8-3c-0.4-1.7-1.1-2.4-2.6-2.5h-1.6v5.5h-1.6V107.1z
		 M206.2,112.9h1.7c1.8,0,2.9-1,2.9-2.4c0-1.7-1.2-2.4-2.9-2.4c-0.8,0-1.3,0.1-1.6,0.1V112.9z"/>
	<path class="st1" d="M219.7,119.9c-3.4,0-5.7-2.6-5.7-6.5c0-4,2.5-6.7,5.9-6.7c3.5,0,5.7,2.7,5.7,6.4
		C225.6,117.6,222.9,119.9,219.7,119.9L219.7,119.9z M219.7,118.6c2.6,0,4.1-2.4,4.1-5.3c0-2.5-1.3-5.2-4.1-5.2
		c-2.7,0-4.1,2.6-4.1,5.3C215.7,116.1,217.1,118.6,219.7,118.6L219.7,118.6z"/>
	<path class="st1" d="M229.3,107v7.5c0,2.8,1.3,4,3,4c1.9,0,3.1-1.2,3.1-4V107h1.7v7.4c0,3.9-2.1,5.5-4.8,5.5
		c-2.6,0-4.6-1.5-4.6-5.4V107H229.3z"/>
	<path class="st1" d="M239.9,107.1c0.8-0.1,1.8-0.3,3.2-0.3c1.6,0,2.8,0.4,3.6,1.1c0.7,0.6,1.1,1.5,1.1,2.7c0,1.2-0.3,2.1-1,2.7
		c-0.9,0.9-2.3,1.4-3.9,1.4c-0.5,0-0.9,0-1.3-0.1v5.1h-1.6V107.1z M241.5,113.2c0.4,0.1,0.8,0.1,1.4,0.1c2,0,3.2-1,3.2-2.7
		c0-1.7-1.2-2.5-3-2.5c-0.7,0-1.3,0.1-1.6,0.1V113.2z"/>
</g>
<g>
	<path class="st3" d="M209.9,46.2h31.9v26.2h-9.6l-2.5-4.2c-5.8,4.2-13.1,5.8-26,5.8c-15.8,0-37.2-3.2-37.2-24.4
		c0-20.2,19.9-24.8,37.1-24.8c25,0,36.9,5.5,38.6,17.4h-25.3c-0.6-2.4-2.3-3.9-4.4-4.7c-2.2-0.8-4.7-1.1-7.6-1.1
		c-9.2,0-15,3.7-15,13c0,8.5,5.6,13,16.7,13c7.3,0,11-2.3,12.6-5.8h-9.2V46.2z"/>
	<path class="st3" d="M77.5,56.7L70.1,62v12.4H47.7v-46h22.5v16.2L91,28.4h29.8L95.4,46.2l27.6,28.2H93.1L77.5,56.7z"/>
	<radialGradient id="SVGID_1_" cx="154.4094" cy="40.514" r="41.0696" gradientUnits="userSpaceOnUse">
		<stop  offset="5.618000e-03" style="stop-color:#AEB0B7"/>
		<stop  offset="0.272" style="stop-color:#AAABAB"/>
		<stop  offset="0.3539" style="stop-color:#A9A9A6"/>
		<stop  offset="0.5249" style="stop-color:#969B9D"/>
		<stop  offset="0.6742" style="stop-color:#838C92"/>
		<stop  offset="1" style="stop-color:#657076"/>
	</radialGradient>
	<path class="st4" d="M137.9,28.7h-30.6v-22h94.3v22H171v45.7h-33.1V28.7z"/>
	<path class="st2" d="M110.4,53.9c-11-1.4-15.5-6.5-15.5-12.9c0-11.9,14.4-15.1,32.9-15.1c25.3,0,35.8,5.3,36.6,15.1h-26.1
		c0-1.9-1.4-3-3.4-3.7c-2-0.7-4.5-1-7-1c-6.7,0-9,1.4-9,3.3c0,1.3,0.7,2.1,2.9,2.4l26.8,3.2c11.3,1.4,18.3,5.6,18.3,13.4
		c0,11.2-11.3,16.5-36.6,16.5C113,75,94.1,73.1,94,59.5h27.1c0.1,1.5,0.8,2.6,2.4,3.3c1.7,0.6,4.1,1,7.6,1c7,0,8.9-1.5,8.9-3.7
		c0-1.4-1-2.7-4.1-3.1L110.4,53.9z"/>
	<g>
		<polygon class="st2" points="103.8,6.8 103.8,11.3 40.8,9.4 		"/>
		<polygon class="st2" points="103.8,13.9 103.8,18.5 40.8,16.5 		"/>
		<polygon class="st2" points="103.8,21 103.8,25.6 40.8,23.6 		"/>
	</g>
</g>
<line class="st5" x1="24.4" y1="125.7" x2="265.3" y2="125.7"/>
</svg>
