<?xml version="1.0" encoding="UTF-8" standalone="no"?>
<svg width="243px" height="138px" viewBox="0 0 243 138" version="1.1" xmlns="http://www.w3.org/2000/svg" xmlns:xlink="http://www.w3.org/1999/xlink" xmlns:sketch="http://www.bohemiancoding.com/sketch/ns">
    <!-- Generator: Sketch 3.3.2 (12043) - http://www.bohemiancoding.com/sketch -->
    <title>KSTG_Logo</title>
    <desc>Created with Sketch.</desc>
    <defs>
        <path id="path-1" d="M0.06,0.269 L242.03,0.269 L242.03,137.94 L0.06,137.94"></path>
        <path id="path-3" d="M31.417,22.299 L0.789,22.299 L0.789,0.269 L95.136,0.269 L95.136,22.299 L64.508,22.299 L64.508,68.036 L31.417,68.036 L31.417,22.299"></path>
    </defs>
    <g id="Page-1" stroke="none" stroke-width="1" fill="none" fill-rule="evenodd" sketch:type="MSPage">
        <g id="KSTG_Logo" sketch:type="MSLayerGroup">
            <g id="Group-18">
                <mask id="mask-2" sketch:name="Clip 2" fill="white">
                    <use xlink:href="#path-1"></use>
                </mask>
                <g id="Clip-2"></g>
                <path d="M2.492,126.54 L2.492,130.24 L10.844,130.24 C13.259,130.24 13.927,130.985 13.927,133.375 L13.927,134.865 C13.927,137.306 13.233,138 10.844,138 L3.109,138 C0.72,138 0,137.306 0,134.865 L0,134.504 L2.056,134.017 L2.056,136.149 L11.923,136.149 L11.923,132.167 L3.598,132.167 C1.233,132.167 0.514,131.499 0.514,129.032 L0.514,127.876 C0.514,125.409 1.233,124.741 3.598,124.741 L10.663,124.741 C12.873,124.741 13.772,125.357 13.772,127.644 L13.772,127.926 L11.871,128.466 L11.871,126.54 L2.492,126.54" id="Fill-1" fill="#B4B5B4" sketch:type="MSShapeGroup" mask="url(#mask-2)"></path>
                <path d="M19.713,127.104 L30.686,127.104 L30.686,128.723 L21.769,128.723 L21.769,131.524 L27.14,131.524 L27.14,133.143 L21.769,133.143 L21.769,136.407 L30.788,136.407 L30.788,138 L19.713,138 L19.713,127.104" id="Fill-3" fill="#B4B5B4" sketch:type="MSShapeGroup" mask="url(#mask-2)"></path>
                <path d="M36.701,128.698 L36.701,132.218 L42.509,132.218 C43.408,132.218 43.665,131.987 43.665,131.113 L43.665,129.802 C43.665,128.903 43.279,128.698 42.509,128.698 L36.701,128.698 L36.701,128.698 Z M34.646,127.104 L43.408,127.104 C45.001,127.104 45.695,127.696 45.695,129.211 L45.695,131.653 C45.695,133.143 45.001,133.734 43.408,133.734 L41.969,133.734 L46.774,138 L44.024,138 L39.683,133.734 L36.701,133.734 L36.701,138 L34.646,138 L34.646,127.104 L34.646,127.104 Z" id="Fill-4" fill="#B4B5B4" sketch:type="MSShapeGroup" mask="url(#mask-2)"></path>
                <path d="M48.448,127.104 L50.658,127.104 L55.54,135.867 L60.217,127.104 L62.246,127.104 L56.285,138 L54.718,138 L48.448,127.104" id="Fill-5" fill="#B4B5B4" sketch:type="MSShapeGroup" mask="url(#mask-2)"></path>
                <path d="M65.282,127.13 L67.338,127.13 L67.338,137.94 L65.282,137.94 L65.282,127.13 Z" id="Fill-6" fill="#B4B5B4" sketch:type="MSShapeGroup" mask="url(#mask-2)"></path>
                <path d="M74.123,128.723 L74.123,136.355 L81.729,136.355 L81.729,133.759 L83.784,134.145 L83.784,135.43 C83.784,137.434 83.168,138 81.112,138 L74.714,138 C72.606,138 72.067,137.434 72.067,135.43 L72.067,129.7 C72.067,127.696 72.633,127.104 74.714,127.104 L81.112,127.104 C83.142,127.104 83.784,127.669 83.784,129.7 L83.784,130.728 L81.729,131.062 L81.729,128.723 L74.123,128.723" id="Fill-7" fill="#B4B5B4" sketch:type="MSShapeGroup" mask="url(#mask-2)"></path>
                <path d="M88.156,127.104 L99.129,127.104 L99.129,128.723 L90.212,128.723 L90.212,131.524 L95.583,131.524 L95.583,133.143 L90.212,133.143 L90.212,136.407 L99.231,136.407 L99.231,138 L88.156,138 L88.156,127.104" id="Fill-8" fill="#B4B5B4" sketch:type="MSShapeGroup" mask="url(#mask-2)"></path>
                <path d="M115.837,126.54 L115.837,136.149 L120.616,136.149 C124.573,136.149 126.5,135.044 126.5,131.293 C126.5,127.696 124.547,126.54 120.616,126.54 L115.837,126.54 L115.837,126.54 Z M126.012,125.768 C127.708,126.874 128.762,128.929 128.762,131.293 C128.762,133.786 127.733,135.841 126.012,136.971 C124.83,137.743 123.16,138 120.924,138 L113.627,138 L113.627,124.741 L120.924,124.741 C123.16,124.741 124.805,124.998 126.012,125.768 L126.012,125.768 Z" id="Fill-9" fill="#B4B5B4" sketch:type="MSShapeGroup" mask="url(#mask-2)"></path>
                <path d="M133.417,127.13 L135.473,127.13 L135.473,137.94 L133.417,137.94 L133.417,127.13 Z" id="Fill-10" fill="#B4B5B4" sketch:type="MSShapeGroup" mask="url(#mask-2)"></path>
                <path d="M140.459,127.104 L151.303,127.104 L151.303,128.723 L142.515,128.723 L142.515,132.089 L147.475,132.089 L147.475,133.682 L142.515,133.682 L142.515,138 L140.459,138 L140.459,127.104" id="Fill-11" fill="#B4B5B4" sketch:type="MSShapeGroup" mask="url(#mask-2)"></path>
                <path d="M154.415,127.104 L165.26,127.104 L165.26,128.723 L156.471,128.723 L156.471,132.089 L161.431,132.089 L161.431,133.682 L156.471,133.682 L156.471,138 L154.415,138 L154.415,127.104" id="Fill-12" fill="#B4B5B4" sketch:type="MSShapeGroup" mask="url(#mask-2)"></path>
                <path d="M168.372,127.104 L179.344,127.104 L179.344,128.723 L170.428,128.723 L170.428,131.524 L175.798,131.524 L175.798,133.143 L170.428,133.143 L170.428,136.407 L179.446,136.407 L179.446,138 L168.372,138 L168.372,127.104" id="Fill-13" fill="#B4B5B4" sketch:type="MSShapeGroup" mask="url(#mask-2)"></path>
                <path d="M185.36,128.698 L185.36,132.218 L191.167,132.218 C192.066,132.218 192.323,131.987 192.323,131.113 L192.323,129.802 C192.323,128.903 191.938,128.698 191.167,128.698 L185.36,128.698 L185.36,128.698 Z M183.305,127.104 L192.066,127.104 C193.66,127.104 194.354,127.696 194.354,129.211 L194.354,131.653 C194.354,133.143 193.66,133.734 192.066,133.734 L190.628,133.734 L195.433,138 L192.684,138 L188.341,133.734 L185.36,133.734 L185.36,138 L183.305,138 L183.305,127.104 L183.305,127.104 Z" id="Fill-14" fill="#B4B5B4" sketch:type="MSShapeGroup" mask="url(#mask-2)"></path>
                <path d="M199.06,127.104 L210.031,127.104 L210.031,128.723 L201.115,128.723 L201.115,131.524 L206.485,131.524 L206.485,133.143 L201.115,133.143 L201.115,136.407 L210.134,136.407 L210.134,138 L199.06,138 L199.06,127.104" id="Fill-15" fill="#B4B5B4" sketch:type="MSShapeGroup" mask="url(#mask-2)"></path>
                <path d="M215.895,131.242 L215.895,138 L213.993,138 L213.993,127.104 L215.561,127.104 L223.552,134.222 C224.065,134.659 224.477,135.147 224.862,135.712 C224.733,135.019 224.683,134.351 224.683,133.682 L224.683,127.104 L226.584,127.104 L226.584,138 L225.171,138 L217.025,130.779 C216.537,130.342 216.1,129.879 215.74,129.289 C215.843,129.931 215.895,130.599 215.895,131.242" id="Fill-16" fill="#B4B5B4" sketch:type="MSShapeGroup" mask="url(#mask-2)"></path>
                <path d="M236.865,138 L234.81,138 L234.81,128.723 L229.671,128.723 L229.671,127.104 L242.03,127.104 L242.03,128.723 L236.865,128.723 L236.865,138" id="Fill-17" fill="#B4B5B4" sketch:type="MSShapeGroup" mask="url(#mask-2)"></path>
            </g>
            <path d="M45.303,75.9 L47.807,75.9 L47.807,85.252 L47.893,85.252 C48.411,84.504 48.929,83.814 49.419,83.181 L55.346,75.9 L58.455,75.9 L51.433,84.13 L59.002,95.296 L56.038,95.296 L49.649,85.771 L47.807,87.901 L47.807,95.296 L45.303,95.296 L45.303,75.9" id="Fill-19" fill="#9E9F9E" sketch:type="MSShapeGroup"></path>
            <path d="M70.94,86.202 L63.401,86.202 L63.401,93.196 L71.804,93.196 L71.804,95.296 L60.897,95.296 L60.897,75.9 L71.372,75.9 L71.372,78 L63.401,78 L63.401,84.13 L70.94,84.13 L70.94,86.202" id="Fill-20" fill="#9E9F9E" sketch:type="MSShapeGroup"></path>
            <path d="M79.57,95.296 L73.239,75.9 L75.944,75.9 L78.965,85.454 C79.799,88.073 80.519,90.433 81.038,92.706 L81.095,92.706 C81.641,90.461 82.448,88.015 83.311,85.483 L86.591,75.9 L89.268,75.9 L82.333,95.296 L79.57,95.296" id="Fill-21" fill="#9E9F9E" sketch:type="MSShapeGroup"></path>
            <path d="M91.365,75.9 L93.869,75.9 L93.869,95.296 L91.365,95.296 L91.365,75.9 Z" id="Fill-22" fill="#9E9F9E" sketch:type="MSShapeGroup"></path>
            <path d="M98.241,95.296 L98.241,75.9 L100.975,75.9 L107.191,85.713 C108.63,87.987 109.752,90.03 110.673,92.016 L110.731,91.987 C110.5,89.397 110.443,87.036 110.443,84.015 L110.443,75.9 L112.803,75.9 L112.803,95.296 L110.27,95.296 L104.112,85.454 C102.759,83.296 101.464,81.079 100.486,78.979 L100.4,79.008 C100.543,81.454 100.601,83.785 100.601,87.008 L100.601,95.296 L98.241,95.296" id="Fill-23" fill="#9E9F9E" sketch:type="MSShapeGroup"></path>
            <path d="M117.029,90.778 C118.179,91.382 120.021,91.987 121.892,91.987 C123.907,91.987 124.971,91.153 124.971,89.886 C124.971,88.677 124.05,87.987 121.719,87.181 C118.496,86.03 116.367,84.245 116.367,81.425 C116.367,78.115 119.158,75.612 123.705,75.612 C125.92,75.612 127.503,76.043 128.655,76.59 L127.676,80.102 C126.928,79.727 125.518,79.18 123.647,79.18 C121.748,79.18 120.827,80.073 120.827,81.051 C120.827,82.288 121.892,82.835 124.424,83.785 C127.849,85.051 129.432,86.835 129.432,89.57 C129.432,92.822 126.957,95.584 121.633,95.584 C119.417,95.584 117.23,94.98 116.136,94.375 L117.029,90.778" id="Fill-24" fill="#572A79" sketch:type="MSShapeGroup"></path>
            <path d="M148.824,87.871 C148.738,85.54 148.652,82.72 148.652,79.9 L148.594,79.9 C147.96,82.375 147.155,85.138 146.407,87.411 L144.047,94.98 L140.623,94.98 L138.55,87.497 C137.917,85.195 137.284,82.432 136.794,79.9 L136.737,79.9 C136.651,82.519 136.536,85.512 136.42,87.929 L136.046,95.296 L131.989,95.296 L133.226,75.9 L139.068,75.9 L140.967,82.375 C141.601,84.619 142.176,87.036 142.608,89.311 L142.723,89.311 C143.241,87.066 143.903,84.504 144.565,82.346 L146.608,75.9 L152.364,75.9 L153.4,95.296 L149.141,95.296 L148.824,87.871" id="Fill-25" fill="#572A79" sketch:type="MSShapeGroup"></path>
            <path d="M156.79,75.9 L161.164,75.9 L161.164,95.296 L156.79,95.296 L156.79,75.9 Z" id="Fill-26" fill="#572A79" sketch:type="MSShapeGroup"></path>
            <path d="M168.73,79.583 L163.493,79.583 L163.493,75.9 L178.4,75.9 L178.4,79.583 L173.104,79.583 L173.104,95.296 L168.73,95.296 L168.73,79.583" id="Fill-27" fill="#572A79" sketch:type="MSShapeGroup"></path>
            <path d="M185.129,75.9 L185.129,83.353 L192.353,83.353 L192.353,75.9 L196.727,75.9 L196.727,95.296 L192.353,95.296 L192.353,87.181 L185.129,87.181 L185.129,95.296 L180.755,95.296 L180.755,75.9 L185.129,75.9" id="Fill-28" fill="#572A79" sketch:type="MSShapeGroup"></path>
            <path d="M156.065,113.321 L156.065,100.609 L158.706,100.609 L161.987,106.06 C162.835,107.474 163.572,108.946 164.156,110.322 L164.194,110.322 C164.042,108.624 163.986,106.984 163.986,105.041 L163.986,100.609 L166.136,100.609 L166.136,113.321 L163.741,113.321 L160.421,107.719 C159.611,106.342 158.762,104.777 158.14,103.344 L158.083,103.363 C158.177,105.003 158.197,106.682 158.197,108.776 L158.197,113.321 L156.065,113.321 L156.065,113.321 Z M144.575,107.022 C144.575,109.605 145.875,111.68 148.101,111.68 C150.345,111.68 151.609,109.586 151.609,106.927 C151.609,104.532 150.421,102.25 148.101,102.25 C145.8,102.25 144.575,104.4 144.575,107.022 L144.575,107.022 Z M154.061,106.832 C154.061,111.095 151.477,113.528 147.969,113.528 C144.386,113.528 142.123,110.793 142.123,107.059 C142.123,103.156 144.575,100.402 148.158,100.402 C151.874,100.402 154.061,103.211 154.061,106.832 L154.061,106.832 Z M137.802,100.609 L140.122,100.609 L140.122,113.321 L137.802,113.321 L137.802,100.609 Z M130.331,102.552 L126.709,102.552 L126.709,100.609 L136.309,100.609 L136.309,102.552 L132.65,102.552 L132.65,113.321 L130.331,113.321 L130.331,102.552 L130.331,102.552 Z M123.613,107.964 L122.614,104.833 C122.369,104.061 122.161,103.193 121.972,102.457 L121.935,102.457 C121.747,103.193 121.557,104.079 121.332,104.833 L120.35,107.964 L123.613,107.964 L123.613,107.964 Z M119.973,109.718 L118.879,113.321 L116.484,113.321 L120.558,100.609 L123.519,100.609 L127.649,113.321 L125.16,113.321 L124.009,109.718 L119.973,109.718 L119.973,109.718 Z M111.333,102.552 L107.711,102.552 L107.711,100.609 L117.311,100.609 L117.311,102.552 L113.652,102.552 L113.652,113.321 L111.333,113.321 L111.333,102.552 L111.333,102.552 Z M100.372,106.399 L101.749,106.399 C103.314,106.399 104.294,105.57 104.294,104.306 C104.294,102.91 103.314,102.269 101.805,102.269 C101.07,102.269 100.598,102.326 100.372,102.382 L100.372,106.399 L100.372,106.399 Z M98.071,100.779 C98.938,100.628 100.24,100.515 101.579,100.515 C103.408,100.515 104.653,100.817 105.501,101.534 C106.2,102.117 106.595,103.004 106.595,104.079 C106.595,105.72 105.483,106.832 104.294,107.267 L104.294,107.324 C105.2,107.662 105.747,108.549 106.067,109.775 C106.463,111.36 106.803,112.83 107.067,113.321 L104.671,113.321 C104.483,112.944 104.181,111.907 103.823,110.322 C103.464,108.662 102.861,108.134 101.541,108.096 L100.372,108.096 L100.372,113.321 L98.071,113.321 L98.071,100.779 L98.071,100.779 Z M86.581,107.022 C86.581,109.605 87.882,111.68 90.108,111.68 C92.352,111.68 93.616,109.586 93.616,106.927 C93.616,104.532 92.427,102.25 90.108,102.25 C87.806,102.25 86.581,104.4 86.581,107.022 L86.581,107.022 Z M96.067,106.832 C96.067,111.095 93.484,113.528 89.975,113.528 C86.392,113.528 84.129,110.793 84.129,107.059 C84.129,103.156 86.581,100.402 90.165,100.402 C93.879,100.402 96.067,103.211 96.067,106.832 L96.067,106.832 Z M76.544,106.701 C76.827,106.777 77.205,106.795 77.675,106.795 C79.411,106.795 80.467,105.947 80.467,104.456 C80.467,103.042 79.486,102.287 77.883,102.287 C77.242,102.287 76.79,102.344 76.544,102.401 L76.544,106.701 L76.544,106.701 Z M74.243,100.779 C75.073,100.628 76.223,100.515 77.789,100.515 C79.486,100.515 80.731,100.873 81.542,101.552 C82.296,102.174 82.787,103.174 82.787,104.363 C82.787,105.57 82.41,106.569 81.693,107.247 C80.769,108.172 79.317,108.606 77.675,108.606 C77.242,108.606 76.846,108.587 76.544,108.531 L76.544,113.321 L74.243,113.321 L74.243,100.779 L74.243,100.779 Z M64.395,110.793 C65.15,111.227 66.281,111.605 67.469,111.605 C68.96,111.605 69.789,110.907 69.789,109.869 C69.789,108.908 69.148,108.342 67.526,107.757 C65.432,107.002 64.093,105.89 64.093,104.061 C64.093,101.986 65.829,100.402 68.581,100.402 C69.959,100.402 70.977,100.703 71.637,101.043 L71.072,102.91 C70.619,102.664 69.732,102.307 68.544,102.307 C67.073,102.307 66.432,103.099 66.432,103.834 C66.432,104.815 67.168,105.268 68.865,105.928 C71.072,106.757 72.146,107.87 72.146,109.7 C72.146,111.737 70.6,113.528 67.318,113.528 C65.979,113.528 64.584,113.132 63.886,112.717 L64.395,110.793 L64.395,110.793 Z M51.698,113.321 L51.698,100.609 L54.338,100.609 L57.62,106.06 C58.468,107.474 59.204,108.946 59.789,110.322 L59.827,110.322 C59.675,108.624 59.619,106.984 59.619,105.041 L59.619,100.609 L61.769,100.609 L61.769,113.321 L59.374,113.321 L56.054,107.719 C55.244,106.342 54.395,104.777 53.772,103.344 L53.715,103.363 C53.81,105.003 53.829,106.682 53.829,108.776 L53.829,113.321 L51.698,113.321 L51.698,113.321 Z M45.885,107.964 L44.885,104.833 C44.64,104.061 44.433,103.193 44.245,102.457 L44.206,102.457 C44.018,103.193 43.83,104.079 43.603,104.833 L42.623,107.964 L45.885,107.964 L45.885,107.964 Z M42.246,109.718 L41.152,113.321 L38.756,113.321 L42.83,100.609 L45.791,100.609 L49.921,113.321 L47.432,113.321 L46.282,109.718 L42.246,109.718 L42.246,109.718 Z M31.134,106.399 L32.51,106.399 C34.076,106.399 35.057,105.57 35.057,104.306 C35.057,102.91 34.076,102.269 32.567,102.269 C31.831,102.269 31.36,102.326 31.134,102.382 L31.134,106.399 L31.134,106.399 Z M28.833,100.779 C29.701,100.628 31.002,100.515 32.341,100.515 C34.17,100.515 35.416,100.817 36.264,101.534 C36.961,102.117 37.358,103.004 37.358,104.079 C37.358,105.72 36.245,106.832 35.057,107.267 L35.057,107.324 C35.962,107.662 36.509,108.549 36.83,109.775 C37.226,111.36 37.565,112.83 37.83,113.321 L35.434,113.321 C35.246,112.944 34.944,111.907 34.585,110.322 C34.227,108.662 33.623,108.134 32.303,108.096 L31.134,108.096 L31.134,113.321 L28.833,113.321 L28.833,100.779 L28.833,100.779 Z M21.361,102.552 L17.74,102.552 L17.74,100.609 L27.339,100.609 L27.339,102.552 L23.681,102.552 L23.681,113.321 L21.361,113.321 L21.361,102.552 L21.361,102.552 Z" id="Fill-29" fill="#572A79" sketch:type="MSShapeGroup"></path>
            <path d="M178.596,112.749 C177.86,113.028 176.4,113.448 174.688,113.448 C172.76,113.448 171.17,112.96 169.934,111.768 C168.838,110.713 168.164,109.025 168.167,107.047 C168.172,103.257 170.779,100.482 175.039,100.482 C176.507,100.482 177.672,100.805 178.218,101.065 L177.808,102.404 C177.131,102.095 176.283,101.86 175,101.86 C171.917,101.86 169.894,103.78 169.894,106.961 C169.894,110.184 171.827,112.091 174.801,112.091 C175.875,112.091 176.603,111.94 176.982,111.748 L176.982,107.96 L174.41,107.96 L174.41,106.648 L178.596,106.648 L178.596,112.749" id="Fill-30" fill="#9E9F9E" sketch:type="MSShapeGroup"></path>
            <path d="M182.733,106.57 L184.411,106.57 C186.167,106.57 187.281,105.613 187.281,104.157 C187.281,102.505 186.089,101.787 184.358,101.785 C183.562,101.785 183.011,101.858 182.733,101.93 L182.733,106.57 L182.733,106.57 Z M181.092,100.784 C181.925,100.617 183.122,100.51 184.25,100.51 C185.993,100.51 187.141,100.841 187.933,101.556 C188.561,102.113 188.93,102.979 188.93,103.973 C188.93,105.643 187.864,106.753 186.535,107.211 L186.535,107.258 C187.503,107.598 188.089,108.514 188.399,109.831 C188.817,111.609 189.118,112.824 189.376,113.321 L187.673,113.321 C187.473,112.952 187.186,111.869 186.838,110.278 C186.461,108.536 185.773,107.862 184.287,107.812 L182.733,107.812 L182.733,113.321 L181.092,113.321 L181.092,100.784 L181.092,100.784 Z" id="Fill-31" fill="#9E9F9E" sketch:type="MSShapeGroup"></path>
            <path d="M196.292,112.193 C198.9,112.193 200.365,109.798 200.365,106.909 C200.365,104.379 199.044,101.737 196.313,101.737 C193.575,101.737 192.224,104.293 192.226,107.033 C192.223,109.719 193.693,112.193 196.273,112.193 L196.292,112.193 L196.292,112.193 Z M196.222,113.528 C192.85,113.528 190.508,110.918 190.508,107.076 C190.508,103.049 193,100.402 196.394,100.402 C199.866,100.402 202.12,103.061 202.12,106.837 C202.12,111.199 199.462,113.528 196.241,113.528 L196.222,113.528 L196.222,113.528 Z" id="Fill-32" fill="#9E9F9E" sketch:type="MSShapeGroup"></path>
            <path d="M205.882,100.609 L205.882,108.143 C205.882,110.978 207.14,112.181 208.855,112.181 C210.726,112.181 211.946,110.936 211.946,108.143 L211.946,100.609 L213.596,100.609 L213.596,108.026 C213.596,111.934 211.542,113.528 208.786,113.528 C206.191,113.528 204.232,112.047 204.232,108.097 L204.232,100.609 L205.882,100.609" id="Fill-33" fill="#9E9F9E" sketch:type="MSShapeGroup"></path>
            <path d="M218.09,106.885 C218.456,106.992 218.913,107.029 219.452,107.029 C221.443,107.029 222.645,106.051 222.645,104.315 C222.645,102.631 221.444,101.809 219.643,101.809 C218.919,101.809 218.38,101.876 218.09,101.939 L218.09,106.885 L218.09,106.885 Z M216.45,100.764 C217.242,100.622 218.28,100.51 219.61,100.51 C221.221,100.51 222.414,100.883 223.172,101.567 C223.863,102.175 224.291,103.096 224.291,104.228 C224.291,105.38 223.948,106.289 223.302,106.948 C222.426,107.877 221.022,108.34 219.418,108.34 C218.919,108.34 218.469,108.322 218.09,108.222 L218.09,113.321 L216.45,113.321 L216.45,100.764 L216.45,100.764 Z" id="Fill-34" fill="#9E9F9E" sketch:type="MSShapeGroup"></path>
            <path d="M186.432,39.816 L218.372,39.816 L218.372,66.036 L208.734,66.036 L206.185,61.848 C200.371,66.036 193.042,67.646 180.139,67.646 C164.369,67.646 142.942,64.49 142.942,43.23 C142.942,23.066 162.855,18.428 180.06,18.428 C205.07,18.428 216.938,23.968 218.69,35.822 L193.362,35.822 C192.724,33.438 191.051,31.956 188.981,31.119 C186.83,30.282 184.281,30.024 181.334,30.024 C172.174,30.024 166.36,33.696 166.36,43.037 C166.36,51.541 171.935,56.051 183.086,56.051 C190.414,56.051 194.079,53.731 195.671,50.252 L186.432,50.252 L186.432,39.816" id="Fill-35" fill="#CBCCCB" sketch:type="MSShapeGroup"></path>
            <path d="M54.082,50.384 L46.674,55.667 L46.674,68.036 L24.213,68.036 L24.213,22.038 L46.674,22.038 L46.674,38.273 L67.543,22.038 L97.332,22.038 L71.923,39.819 L99.482,68.036 L69.613,68.036 L54.082,50.384" id="Fill-36" fill="#CBCCCB" sketch:type="MSShapeGroup"></path>
            <g id="Group-39" transform="translate(83.000000, 0.000000)">
                <mask id="mask-4" sketch:name="Clip 38" fill="white">
                    <use xlink:href="#path-3"></use>
                </mask>
                <g id="Clip-38"></g>
                <path d="M31.417,22.299 L0.789,22.299 L0.789,0.269 L95.136,0.269 L95.136,22.299 L64.508,22.299 L64.508,68.036 L31.417,68.036 L31.417,22.299" id="Fill-37" sketch:type="MSShapeGroup" mask="url(#mask-4)"></path>
            </g>
            <path d="M86.915,47.516 C75.923,46.163 71.383,41.009 71.383,34.567 C71.383,22.649 85.8,19.428 104.279,19.428 C129.608,19.428 140.042,24.775 140.839,34.503 L114.713,34.503 C114.713,32.634 113.36,31.474 111.288,30.83 C109.297,30.122 106.748,29.864 104.279,29.864 C97.588,29.864 95.279,31.217 95.279,33.15 C95.279,34.438 95.995,35.276 98.226,35.533 L125.068,38.754 C136.378,40.107 143.388,44.359 143.388,52.154 C143.388,63.364 132.077,68.646 106.827,68.646 C89.543,68.646 70.666,66.714 70.587,53.185 L97.668,53.185 C97.747,54.731 98.464,55.762 100.058,56.47 C101.73,57.115 104.2,57.437 107.704,57.437 C114.713,57.437 116.625,55.891 116.625,53.7 C116.625,52.347 115.589,50.995 112.563,50.608 L86.915,47.516" id="Fill-40" fill="#572A79" sketch:type="MSShapeGroup"></path>
            <path d="M80.368,0.464 L80.368,4.986 L17.34,3.007 L80.368,0.464" id="Fill-41" fill="#572A79" sketch:type="MSShapeGroup"></path>
            <path d="M80.368,7.572 L80.368,12.094 L17.34,10.116 L80.368,7.572" id="Fill-42" fill="#572A79" sketch:type="MSShapeGroup"></path>
            <path d="M80.368,14.68 L80.368,19.202 L17.34,17.224 L80.368,14.68" id="Fill-43" fill="#572A79" sketch:type="MSShapeGroup"></path>
            <path d="M0.982,119.328 L241.886,119.328" id="Stroke-44" stroke="#572A79" sketch:type="MSShapeGroup"></path>
        </g>
    </g>
</svg>